<svg width="40" height="40" viewBox="0 0 40 40" fill="none" xmlns="http://www.w3.org/2000/svg">
<g clip-path="url(#clip0_488_42)">
<g clip-path="url(#clip1_488_42)">
<path d="M4.84561 37.7603C7.45721 40.3886 10.8389 40.4221 13.417 37.844C15.4762 35.7849 17.4684 31.1309 18.9918 28.8039L23.0431 32.8719C24.282 34.1274 25.7887 34.1274 26.9606 32.9221L28.4003 31.4824C29.6224 30.2436 29.6057 28.8373 28.3501 27.5817L15.0409 14.2558C13.7686 13.0002 12.3456 12.9835 11.1235 14.2056L9.68378 15.6453C8.47842 16.8507 8.47842 18.3071 9.73399 19.5627L13.7853 23.6141C11.4751 25.1376 6.83779 27.1297 4.76191 29.1889C2.20052 31.767 2.21726 35.1654 4.84561 37.7603ZM9.31548 35.584C8.16034 35.584 7.23958 34.6464 7.23958 33.508C7.23958 32.3697 8.16034 31.4489 9.31548 31.4489C10.4539 31.4489 11.3746 32.3697 11.3746 33.508C11.3746 34.6464 10.4539 35.584 9.31548 35.584ZM30.3423 26.8116L36.8378 20.3161C38.696 18.4579 38.6458 16.248 36.7541 14.3227L35.9003 13.4522C34.1593 15.7123 29.1871 18.3574 28.2328 17.4031C28.0823 17.2524 28.0654 16.9511 28.2831 16.7167C30.3087 14.6911 31.6313 12.7156 31.9327 9.50136L23.3277 0.879702C21.7373 -0.7107 18.9751 -0.191727 18.2217 2.82167C17.167 7.10739 16.2128 9.6018 15.1748 11.661L30.3423 26.8116Z" fill="#9EFF00" style="fill:#9EFF00;fill:color(display-p3 0.6200 1.0000 0.0000);fill-opacity:1;"/>
</g>
</g>
<defs>
<clipPath id="clip0_488_42">
<rect width="40" height="40" fill="white" style="fill:white;fill-opacity:1;"/>
</clipPath>
<clipPath id="clip1_488_42">
<rect width="35.3453" height="40.0127" fill="white" style="fill:white;fill-opacity:1;" transform="translate(2.85742)"/>
</clipPath>
</defs>
</svg>
